<svg preserveAspectRatio="xMidYMid meet" data-bbox="20 38 160 124" viewBox="20 38 160 124" height="200" width="200" xmlns="http://www.w3.org/2000/svg" data-type="color" role="presentation" aria-hidden="true" aria-label=""><defs><style>#comp-kqz4qwcr svg [data-color="1"] {fill: #DF080F;}</style></defs>
    <g>
        <path d="M82.884 58.096c1.942 1.527 3.012 3.509 3.011 5.581-.002 2.068-1.07 4.042-3.007 5.561a2.659 2.659 0 0 0-.448 3.748 2.686 2.686 0 0 0 2.11 1.018 2.68 2.68 0 0 0 1.66-.573c3.257-2.551 5.052-6.014 5.055-9.75.002-3.741-1.792-7.212-5.055-9.777-1.937-1.518-3.006-3.493-3.008-5.56-.001-2.073 1.068-4.054 3.011-5.581 1.164-.914 1.361-2.593.442-3.749s-2.608-1.353-3.771-.439c-3.261 2.562-5.055 6.033-5.052 9.773.003 3.737 1.798 7.2 5.052 9.748zm17.469 0c1.943 1.527 3.012 3.509 3.011 5.581-.002 2.068-1.071 4.042-3.008 5.561a2.659 2.659 0 0 0-.448 3.748 2.686 2.686 0 0 0 2.11 1.018 2.68 2.68 0 0 0 1.66-.573c3.257-2.551 5.052-6.014 5.055-9.75.003-3.741-1.791-7.212-5.055-9.777-1.937-1.518-3.006-3.493-3.008-5.56-.001-2.073 1.068-4.054 3.011-5.581a2.658 2.658 0 0 0 .442-3.749 2.696 2.696 0 0 0-3.771-.439c-3.261 2.562-5.055 6.033-5.052 9.773.004 3.737 1.799 7.2 5.053 9.748zm17.468 0c1.943 1.527 3.012 3.509 3.011 5.581-.002 2.068-1.071 4.042-3.008 5.561a2.659 2.659 0 0 0-.448 3.748 2.686 2.686 0 0 0 2.11 1.018 2.68 2.68 0 0 0 1.66-.573c3.257-2.551 5.052-6.014 5.055-9.75.003-3.741-1.791-7.212-5.055-9.777-1.937-1.518-3.006-3.493-3.008-5.56-.001-2.073 1.068-4.054 3.011-5.581 1.164-.914 1.361-2.593.442-3.749s-2.609-1.353-3.771-.439c-3.261 2.562-5.055 6.033-5.052 9.773.005 3.737 1.8 7.2 5.053 9.748zm36.865 26.176a51.144 51.144 0 0 0-25.323-6.815c-12.623-.015-21.964 4.252-29.692 8.624-.084.048-.156.111-.233.168a51.486 51.486 0 0 0-3.14-1.977 51.141 51.141 0 0 0-25.323-6.815A51.138 51.138 0 0 0 45.6 84.079a2.741 2.741 0 0 0-1.27 1.651 2.716 2.716 0 0 0 .266 2.06 2.715 2.715 0 0 0 1.617 1.241 2.741 2.741 0 0 0 2.032-.227 45.616 45.616 0 0 1 22.661-5.959 45.619 45.619 0 0 1 22.632 6.067 45.172 45.172 0 0 1 16.553 16.471 44.717 44.717 0 0 1 6.049 22.473c0 20.403-13.138 28.713-45.342 28.713s-45.324-8.309-45.324-28.713a44.267 44.267 0 0 1 9.871-28.007c.453-.565.66-1.284.579-2a2.716 2.716 0 0 0-1.016-1.82 2.758 2.758 0 0 0-3.85.434A49.652 49.652 0 0 0 20 127.856C20 158.126 47.15 162 70.798 162c9.888 0 20.357-.682 29.211-3.66 8.856 2.978 19.318 3.66 29.176 3.66 23.72 0 50.815-3.874 50.815-34.144a50.147 50.147 0 0 0-6.791-25.147 50.639 50.639 0 0 0-18.523-18.437zm-25.5 72.296c-8.395 0-15.488-.568-21.395-1.765 8.269-4.975 13.823-13.255 13.823-26.948a50.14 50.14 0 0 0-6.791-25.146 50.516 50.516 0 0 0-10.725-12.895c6.535-3.582 14.192-6.967 21.47-6.95 7.949.019 19.481 2.092 26.358 6.048s12.586 9.636 16.553 16.471a44.718 44.718 0 0 1 6.05 22.473c-.001 20.402-13.14 28.712-45.343 28.712zM81.327 99.6c5.474.724 11.532 5.033 15.491 10.971.402.601 1.027 1.018 1.739 1.16s1.452-.001 2.056-.399a2.717 2.717 0 0 0 1.169-1.726 2.696 2.696 0 0 0-.403-2.04c-4.744-7.35-12.225-12.474-19.341-13.397a2.778 2.778 0 0 0-2.039.546 2.724 2.724 0 0 0-.503 3.841 2.77 2.77 0 0 0 1.831 1.044zm59.098-5.432a2.778 2.778 0 0 0-2.039.546 2.724 2.724 0 0 0-.503 3.841 2.765 2.765 0 0 0 1.831 1.045c5.474.724 11.532 5.033 15.491 10.971a2.731 2.731 0 0 0 1.739 1.16 2.76 2.76 0 0 0 2.056-.399 2.704 2.704 0 0 0 .767-3.766c-4.745-7.351-12.226-12.474-19.342-13.398z" fill="#DF080F" data-color="1"></path>
    </g>
</svg>