<svg preserveAspectRatio="xMidYMid meet" data-bbox="20 32.274 159.999 145.454" viewBox="20 32.274 159.999 145.454" height="200" width="200" xmlns="http://www.w3.org/2000/svg" data-type="color" role="presentation" aria-hidden="true" aria-label=""><defs><style>#comp-kqz4wf9q svg [data-color="1"] {fill: #FFFFFF;}</style></defs>
    <g>
        <path d="M177.893 45.234a3.6 3.6 0 0 0-4.769 1.776l-15.143 33.091a40.075 40.075 0 0 0-4.544-8.869l9.331-33.406a3.589 3.589 0 0 0-2.502-4.422 3.599 3.599 0 0 0-4.434 2.495l-8.026 28.734c-7.228-6.846-16.987-11.06-27.719-11.06-.309 0-.621.004-.937.013-7.331-13.028-21.358-21.312-36.443-21.312-22.46 0-40.834 17.776-41.716 39.961-11.019 8.071-14.745 20.383-16.503 29.607H23.6a3.595 3.595 0 0 0-3.6 3.59c0 39.864 32.463 72.296 72.365 72.296s72.364-32.432 72.364-72.296a3.595 3.595 0 0 0-3.6-3.59h-1.588c.55-2.662.838-5.371.838-8.09a37.9 37.9 0 0 0-.039-1.512l19.334-42.249a3.585 3.585 0 0 0-1.781-4.757zM152.559 91.95l-4.488 9.807c-.013.027-.017.056-.029.084h-3.155l5.527-19.787a32.11 32.11 0 0 1 2.145 9.896zM46.965 77.528l.826-.534c11.344-6.285 25.519-6.155 37.934.609a3.606 3.606 0 0 0 4.886-1.429 3.585 3.585 0 0 0-1.433-4.872c-12.895-7.025-27.471-7.948-39.993-2.931 2.657-16.061 16.673-28.354 33.521-28.354 12.998 0 25.032 7.556 30.657 19.252l1.162 2.417 2.678-.234a33.245 33.245 0 0 1 2.883-.135c10.197 0 19.31 4.708 25.278 12.055l-7.953 28.469h-105c2.518-11.903 7.063-19.468 14.554-24.313zm45.4 93.019c-34.726 0-63.195-27.286-65.068-61.527h130.134c-1.871 34.243-30.339 61.527-65.066 61.527zM78.897 52.073h-1.586a3.595 3.595 0 0 0-3.6 3.59 3.595 3.595 0 0 0 3.6 3.59h1.586c1.988 0 3.6-1.607 3.6-3.59a3.595 3.595 0 0 0-3.6-3.59zm0 27.988h-1.586c-1.988 0-3.6 1.607-3.6 3.59s1.612 3.59 3.6 3.59h1.586c1.988 0 3.6-1.607 3.6-3.59s-1.612-3.59-3.6-3.59zm19.649-15.21c1.988 0 3.6-1.607 3.6-3.59a3.595 3.595 0 0 0-3.6-3.59H96.96a3.595 3.595 0 0 0-3.6 3.59 3.595 3.595 0 0 0 3.6 3.59h1.586zm2.398 23.139h-1.587c-1.988 0-3.6 1.607-3.6 3.59s1.612 3.59 3.6 3.59h1.587c1.988 0 3.6-1.607 3.6-3.59s-1.611-3.59-3.6-3.59zm11.637-10.728h-1.587a3.595 3.595 0 0 0-3.6 3.59 3.595 3.595 0 0 0 3.6 3.59h1.587c1.988 0 3.6-1.607 3.6-3.59a3.596 3.596 0 0 0-3.6-3.59zm19.647 11.196h-1.587a3.595 3.595 0 0 0-3.6 3.59 3.595 3.595 0 0 0 3.6 3.59h1.587c1.988 0 3.6-1.607 3.6-3.59a3.595 3.595 0 0 0-3.6-3.59zm-81.397 2.796h-1.586c-1.988 0-3.6 1.607-3.6 3.59s1.612 3.59 3.6 3.59h1.586c1.988 0 3.6-1.607 3.6-3.59s-1.612-3.59-3.6-3.59zm12.312-12.239h-1.586c-1.988 0-3.6 1.607-3.6 3.59s1.612 3.59 3.6 3.59h1.586c1.988 0 3.6-1.607 3.6-3.59s-1.612-3.59-3.6-3.59zm57.856-10.151h-1.586a3.595 3.595 0 0 0-3.6 3.59 3.595 3.595 0 0 0 3.6 3.59h1.586c1.988 0 3.6-1.607 3.6-3.59a3.595 3.595 0 0 0-3.6-3.59z" fill="#EAEAEA" data-color="1"></path>
    </g>
</svg>