<svg preserveAspectRatio="xMidYMid meet" data-bbox="20 31.134 160.003 137.735" viewBox="20 31.134 160.003 137.735" height="200" width="200" xmlns="http://www.w3.org/2000/svg" data-type="color" role="presentation" aria-hidden="true" aria-label=""><defs><style>#comp-kqz4xc8k svg [data-color="1"] {fill: #DF080F;}</style></defs>
    <g>
        <path d="M179.999 148.842v-.016l-.002-.054a25.318 25.318 0 0 0-.092-1.821c-.024-.247-.055-.49-.088-.735a19.592 19.592 0 0 0-.219-1.326l-.008-.042a19.863 19.863 0 0 0-3.592-8.029 3.935 3.935 0 0 0 3.718-3.932c0-11.346-9.1-20.234-20.716-20.234h-3.839l-4.694-22.289a12.804 12.804 0 0 0 7.704-11.744 12.71 12.71 0 0 0-3.741-9.041 12.668 12.668 0 0 0-9.024-3.751h-18.151a3.942 3.942 0 0 0-3.934 3.942v.002h-.048v4.908h-9.626a3.943 3.943 0 0 0 0 7.885h9.626v4.818h.048v.092a3.942 3.942 0 0 0 3.934 3.942l1.745.001a22.153 22.153 0 0 0-5.228 14.272v22.437a.21.21 0 0 1-.209.208h-15.895a.208.208 0 0 1-.2-.153l-.274-.929c7.994-8.877 12.87-20.621 12.87-33.484a1.6 1.6 0 0 0-1.599-1.601h-15.617c-.351-12.328-10.674-22.253-23.325-22.253S56.547 79.842 56.197 92.17h-5.431c3.263-6.105 2.795-14.548-1.423-19.985-3.836-4.932-3.835-13.277 0-18.223 4.755-6.112 4.756-16.071.001-22.201a1.617 1.617 0 0 0-2.271-.286 1.621 1.621 0 0 0-.286 2.273c3.837 4.947 3.838 13.293 0 18.226-4.754 6.129-4.754 16.088 0 22.199 3.78 4.874 3.829 13.04.16 17.997h-5.434c3.263-6.105 2.795-14.548-1.423-19.985-3.836-4.932-3.835-13.277 0-18.223 4.755-6.112 4.755-16.071.001-22.201a1.617 1.617 0 0 0-2.271-.286 1.62 1.62 0 0 0-.286 2.273c3.836 4.947 3.837 13.293 0 18.226-4.754 6.129-4.754 16.088 0 22.199 3.78 4.874 3.828 13.04.16 17.997H32.26c3.263-6.105 2.795-14.548-1.423-19.985C27 67.252 27 58.907 30.836 53.962c4.755-6.112 4.755-16.071.001-22.201a1.617 1.617 0 0 0-2.271-.286 1.62 1.62 0 0 0-.286 2.273c3.836 4.947 3.837 13.293 0 18.226-4.754 6.129-4.754 16.088 0 22.199 3.78 4.874 3.828 13.04.16 17.997H21.6c-.883 0-1.6.717-1.6 1.601 0 18.806 10.418 35.216 25.778 43.774v11.283a3.933 3.933 0 0 0 3.694 3.919v.085h3.66c1.889 9.285 10.11 16.018 19.575 16.018 9.466 0 17.686-6.733 19.575-16.018h2.627v-.06h45.521a19.848 19.848 0 0 0 2.017 5.54l.135.245a20.37 20.37 0 0 0 1.061 1.702c.13.185.257.371.392.551.245.329.503.648.767.961.096.112.191.225.29.335.313.355.639.7.977 1.032l.11.105c3.594 3.479 8.482 5.626 13.864 5.626 11.007 0 19.96-8.961 19.96-19.975a.337.337 0 0 1-.004-.052zm-56.728-69.478h-9.626a.74.74 0 0 1 0-1.48h9.626v1.48zm32.815 36.492h2.912c9.822 0 17.517 7.481 17.517 17.032 0 .39-.304.712-.694.735a3.183 3.183 0 0 0-1.993.845c-3.586-3.436-8.445-5.555-13.79-5.555-1.354 0-2.675.137-3.953.395l.001-13.452zm-29.171-27.733a.735.735 0 0 1-.396-.646v-4.91c0-.161-.025-.315-.048-.471v-6.945c.023-.154.048-.31.048-.471v-4.91c0-.408.329-.74.735-.74h18.15a9.49 9.49 0 0 1 6.76 2.812 9.526 9.526 0 0 1 2.806 6.777 9.6 9.6 0 0 1-5.78 8.806 3.17 3.17 0 0 0-.996.695l-21.279.003zM79.521 73.119c10.885 0 19.775 8.488 20.125 19.051h-5.141c-.332-8.241-6.915-14.845-14.983-14.845S64.87 83.928 64.538 92.169h-5.142c.35-10.562 9.24-19.05 20.125-19.05zm.463 11.612c-3.751 0-6.83 3.282-7.122 7.438h-5.124c.326-6.475 5.478-11.643 11.784-11.643s11.458 5.168 11.784 11.643h-4.198c-.294-4.156-3.373-7.438-7.124-7.438zm3.912 7.438h-7.825c.257-2.386 1.911-4.236 3.912-4.236s3.657 1.849 3.913 4.236zm-59.587 11.709h78.768a1.6 1.6 0 0 0 0-3.202H23.719a46.99 46.99 0 0 1-.492-5.305h93.609c-.82 24.315-20.236 43.993-44.43 45.208-.788.039-1.579.06-2.374.06-.892 0-1.783-.031-2.673-.083-.214-.012-.426-.033-.638-.048a46.088 46.088 0 0 1-2.105-.194c-.197-.023-.393-.049-.591-.073a47.333 47.333 0 0 1-2.28-.351l-.342-.06c-1.811-.34-3.6-.784-5.356-1.333-.073-.023-.144-.049-.215-.072a46.157 46.157 0 0 1-4.553-1.724c-.303-.133-.607-.262-.906-.401-.496-.229-.982-.475-1.47-.722-12.335-6.27-21.536-17.84-24.594-31.7zm28.807 45.689h-3.403a.738.738 0 0 1-.734-.74v-9.633c.266.124.539.229.808.348.421.187.842.371 1.269.547.319.131.64.256.963.381a49.409 49.409 0 0 0 4.273 1.435c.175.05.349.102.525.149.718.197 1.442.376 2.173.542.125.028.248.059.374.087.766.168 1.539.315 2.317.447.102.017.204.038.306.054.779.126 1.564.233 2.354.323.106.012.212.029.319.04.764.082 1.533.143 2.307.19.13.008.259.022.389.03a47.967 47.967 0 0 0 5.139.01 50.187 50.187 0 0 0 1.952-.144c.143-.013.286-.019.428-.033a49.578 49.578 0 0 0 13.356-3.205v9.23H53.716a3.399 3.399 0 0 0-.6-.058zm19.59 16.079c-7.729 0-14.456-5.352-16.282-12.816h32.565c-1.827 7.463-8.554 12.816-16.283 12.816zm67.375-16.757c0 .227.01.452.017.678H92.296c-.196 0-.388.02-.577.054v-10.733a49.746 49.746 0 0 0 3.372-1.808l.119-.069a49.748 49.748 0 0 0 1.698-1.042c.17-.108.339-.215.507-.326.427-.281.85-.57 1.268-.863.293-.205.584-.411.873-.622a60.884 60.884 0 0 0 2.048-1.582c.175-.143.347-.287.52-.432.478-.4.951-.808 1.415-1.228.088-.079.175-.16.262-.24.306-.28.618-.553.917-.841a3.43 3.43 0 0 0 2.947 1.702h15.895a3.413 3.413 0 0 0 3.408-3.41V105.69c0-4.456 1.589-8.79 4.471-12.204a3.21 3.21 0 0 0 .75-2.163h15.206l4.631 21.991c.129.613.44 1.148.859 1.573v15.356c-7.479 2.887-12.804 10.154-12.804 18.646zm19.938 16.757c-.989 0-1.961-.088-2.909-.257l-.026-.004a16.254 16.254 0 0 1-1.289-.289c-.061-.017-.123-.031-.184-.048a16.475 16.475 0 0 1-1.197-.38l-.216-.079c-.386-.144-.765-.3-1.138-.471-.07-.032-.139-.067-.208-.1a16.422 16.422 0 0 1-1.095-.567c-.055-.031-.107-.067-.162-.099a16.958 16.958 0 0 1-2.639-1.917c-.232-.206-.468-.408-.688-.626-.108-.106-.207-.22-.312-.329a17.095 17.095 0 0 1-.769-.846c-.071-.084-.137-.173-.206-.258a16.936 16.936 0 0 1-.78-1.043c-.038-.054-.073-.111-.111-.166a16.94 16.94 0 0 1-.774-1.274l-.016-.028a16.673 16.673 0 0 1-2.02-7.976c0-9.249 7.518-16.774 16.76-16.774 8.636 0 15.764 6.573 16.662 14.982.004.04.011.078.014.117.054.538.082 1.084.082 1.636-.012 9.262-7.534 16.796-16.779 16.796zm.022-20.7c2.176 0 3.939 1.765 3.939 3.943s-1.764 3.943-3.939 3.943c-2.176 0-3.939-1.765-3.939-3.943s1.763-3.943 3.939-3.943zM80.402 39.098c3.284 6.154 11.192 10.504 20.408 10.504V46.4c-9.882 0-18.005-5.544-18.77-12.563.031-.359.053-.72.053-1.084h-3.2v.002h-.117c0 .362.021.721.049 1.078-.798 7.021-9.288 12.566-19.619 12.566v3.202c9.571 0 17.784-4.35 21.196-10.503zm0 15.523c3.284 6.154 11.192 10.504 20.408 10.504v-3.202c-9.882 0-18.005-5.544-18.77-12.563.031-.359.053-.72.053-1.084h-3.2v.001h-.117c0 .362.021.721.05 1.078-.797 7.022-9.288 12.567-19.619 12.567v3.202c9.57 0 17.783-4.35 21.195-10.503z" fill="#DF080F" data-color="1"></path>
    </g>
</svg>