<svg preserveAspectRatio="xMidYMid meet" data-bbox="25 20 150 160" viewBox="25 20 150 160" height="200" width="200" xmlns="http://www.w3.org/2000/svg" data-type="color" role="presentation" aria-hidden="true" aria-label=""><defs><style>#comp-kqz4qwci svg [data-color="1"] {fill: #DF080F;}</style></defs>
    <g>
        <path d="M171.625 117.078A74.934 74.934 0 0 0 175 94.78a3.373 3.373 0 0 0-3.375-3.371H138.62l29.293-39.091a9.515 9.515 0 0 0 1.808-7.155 9.507 9.507 0 0 0-3.81-6.313 9.513 9.513 0 0 0-7.12-1.74 9.512 9.512 0 0 0-6.265 3.811L115.613 91.41H28.375A3.373 3.373 0 0 0 25 94.781c0 7.761 1.182 15.25 3.375 22.297v.48h.161c6.253 19.621 20.353 35.761 38.594 44.703v14.368A3.373 3.373 0 0 0 70.505 180h57.299a3.373 3.373 0 0 0 3.375-3.371v-13.581c19.054-8.76 33.837-25.272 40.28-45.491h.161v-.48h.005zm-13.646-72.182a2.8 2.8 0 0 1 1.845-1.125 2.797 2.797 0 0 1 2.093.512 2.82 2.82 0 0 1 1.127 1.872 2.825 2.825 0 0 1-.537 2.126l-32.318 43.13h-6.218l34.008-46.515zm10.187 53.255a68.11 68.11 0 0 1-1.826 12.667H33.66a68.266 68.266 0 0 1-1.826-12.667h136.332zm-43.733 75.108H73.884v-8.091a74.544 74.544 0 0 0 26.117 4.705c8.553 0 16.767-1.46 24.432-4.113v7.499zm-24.432-10.126c-29.662 0-54.966-19.05-64.353-45.576h128.706c-9.387 26.526-34.691 45.576-64.353 45.576zM68.818 58.326c.004 5.338 2.173 10.335 6.106 14.066a3.36 3.36 0 0 0 2.324.926c.893 0 1.784-.351 2.448-1.049a3.367 3.367 0 0 0-.122-4.765c-2.58-2.448-4.003-5.71-4.006-9.184-.002-3.484 1.421-6.759 4.006-9.217 3.934-3.731 6.103-8.728 6.106-14.066.004-5.348-2.163-10.358-6.103-14.105a3.38 3.38 0 0 0-4.772.114 3.366 3.366 0 0 0 .114 4.765c2.589 2.463 4.012 5.737 4.01 9.222-.003 3.474-1.425 6.737-4.01 9.189-3.938 3.745-6.105 8.756-6.101 14.104zm26.961 13.845c.668.76 1.6 1.147 2.538 1.147a3.37 3.37 0 0 0 2.536-5.594c-4.48-5.1-4.478-13.73 0-18.843 6.706-7.635 6.707-20.074.004-27.73a3.381 3.381 0 0 0-4.763-.319 3.37 3.37 0 0 0-.32 4.757c4.481 5.117 4.483 13.749 0 18.851-6.704 7.655-6.703 20.096.005 27.731zm15.171-13.845c.004 5.338 2.173 10.335 6.106 14.066a3.36 3.36 0 0 0 2.324.926c.893 0 1.784-.351 2.448-1.049a3.367 3.367 0 0 0-.122-4.765c-2.58-2.448-4.003-5.71-4.006-9.184-.002-3.484 1.421-6.759 4.006-9.217 3.934-3.731 6.103-8.728 6.106-14.066.004-5.348-2.163-10.358-6.103-14.105a3.38 3.38 0 0 0-4.772.114 3.366 3.366 0 0 0 .114 4.765c2.589 2.463 4.012 5.737 4.01 9.222-.003 3.474-1.425 6.737-4.01 9.189-3.938 3.745-6.105 8.756-6.101 14.104z" fill="#DF080F" data-color="1"></path>
    </g>
</svg>