<svg width="309" height="58" viewBox="0 0 309 58" fill="none" xmlns="http://www.w3.org/2000/svg">
<path d="M102.518 16.1817V34.9177C102.518 39.0441 101.421 42.111 99.2261 44.1185C97.0313 46.1259 93.8247 47.1296 89.6061 47.1296C87.3829 47.1296 85.2736 46.8647 83.2784 46.335C81.2831 45.8052 79.6299 45.0385 78.3188 44.0348L80.9696 39.3508C81.9387 40.1315 83.1644 40.7449 84.6465 41.1909C86.1287 41.6649 87.6109 41.9019 89.0931 41.9019C91.4019 41.9019 93.0978 41.3861 94.181 40.3545C95.2926 39.3508 95.8484 37.8174 95.8484 35.7542V34.7923C94.1097 36.6603 91.6869 37.5943 88.58 37.5943C86.4708 37.5943 84.5325 37.1482 82.7653 36.256C81.0266 35.3359 79.6442 34.0534 78.618 32.4084C77.5919 30.7635 77.0789 28.8676 77.0789 26.7207C77.0789 24.5739 77.5919 22.678 78.618 21.033C79.6442 19.388 81.0266 18.1194 82.7653 17.2273C84.5325 16.3072 86.4708 15.8472 88.58 15.8472C91.9149 15.8472 94.4517 16.9206 96.1905 19.0674V16.1817H102.518ZM89.9054 32.2412C91.6727 32.2412 93.1121 31.7393 94.2237 30.7356C95.3639 29.704 95.9339 28.3657 95.9339 26.7207C95.9339 25.0758 95.3639 23.7514 94.2237 22.7477C93.1121 21.7161 91.6727 21.2003 89.9054 21.2003C88.1382 21.2003 86.6845 21.7161 85.5444 22.7477C84.4043 23.7514 83.8342 25.0758 83.8342 26.7207C83.8342 28.3657 84.4043 29.704 85.5444 30.7356C86.6845 31.7393 88.1382 32.2412 89.9054 32.2412Z" fill="#0F1424"/>
<path d="M118.004 15.8472C121.567 15.8472 124.303 16.6836 126.213 18.3564C128.123 20.0014 129.078 22.4968 129.078 25.8425V38.6817H122.835V35.8796C121.581 37.9707 119.244 39.0162 115.823 39.0162C114.056 39.0162 112.517 38.7235 111.206 38.138C109.923 37.5525 108.94 36.7439 108.256 35.7123C107.572 34.6807 107.23 33.5097 107.23 32.1993C107.23 30.1083 108.028 28.4633 109.624 27.2644C111.249 26.0655 113.743 25.4661 117.106 25.4661H122.408C122.408 24.0442 121.966 22.9568 121.082 22.204C120.199 21.4233 118.873 21.033 117.106 21.033C115.88 21.033 114.669 21.2282 113.472 21.6185C112.303 21.981 111.306 22.4828 110.479 23.1241L108.085 18.5655C109.339 17.7012 110.835 17.0321 112.574 16.5581C114.341 16.0841 116.151 15.8472 118.004 15.8472ZM117.491 34.625C118.631 34.625 119.643 34.3741 120.527 33.8722C121.41 33.3425 122.037 32.5757 122.408 31.572V29.2718H117.833C115.097 29.2718 113.728 30.1501 113.728 31.9066C113.728 32.743 114.056 33.4122 114.712 33.914C115.396 34.388 116.322 34.625 117.491 34.625Z" fill="#0F1424"/>
<path d="M149.95 37.5943C149.295 38.0683 148.482 38.4307 147.513 38.6817C146.573 38.9047 145.575 39.0162 144.52 39.0162C141.784 39.0162 139.66 38.3331 138.15 36.967C136.668 35.6008 135.926 33.5934 135.926 30.9447V21.7022H132.378V16.6836H135.926V11.205H142.596V16.6836H148.325V21.7022H142.596V30.8611C142.596 31.809 142.839 32.5478 143.323 33.0776C143.836 33.5794 144.549 33.8304 145.461 33.8304C146.516 33.8304 147.413 33.5516 148.154 32.9939L149.95 37.5943Z" fill="#0F1424"/>
<path d="M167.675 15.8472C170.526 15.8472 172.82 16.6836 174.559 18.3564C176.326 20.0293 177.21 22.5107 177.21 25.8007V38.6817H170.54V26.8044C170.54 25.02 170.141 23.6956 169.343 22.8313C168.545 21.9391 167.39 21.493 165.88 21.493C164.198 21.493 162.858 22.0088 161.861 23.0404C160.863 24.0442 160.364 25.5497 160.364 27.5572V38.6817H153.694V7.65015H160.364V18.5237C161.248 17.6594 162.317 17.0042 163.571 16.5581C164.825 16.0841 166.193 15.8472 167.675 15.8472Z" fill="#0F1424"/>
<path d="M206.038 27.5153C206.038 27.599 205.995 28.1845 205.91 29.2718H188.508C188.822 30.6659 189.563 31.7672 190.732 32.5757C191.9 33.3843 193.354 33.7886 195.093 33.7886C196.29 33.7886 197.344 33.6213 198.257 33.2867C199.197 32.9242 200.067 32.3666 200.865 31.6138L204.413 35.3778C202.247 37.8034 199.083 39.0162 194.922 39.0162C192.328 39.0162 190.033 38.5283 188.038 37.5525C186.043 36.5488 184.504 35.1687 183.421 33.4122C182.337 31.6557 181.796 29.6622 181.796 27.4317C181.796 25.2291 182.323 23.2495 183.378 21.493C184.461 19.7087 185.929 18.3286 187.782 17.3527C189.663 16.349 191.758 15.8472 194.067 15.8472C196.318 15.8472 198.356 16.3211 200.181 17.2691C202.005 18.217 203.43 19.5832 204.456 21.3676C205.511 23.1241 206.038 25.1733 206.038 27.5153ZM194.109 20.7821C192.599 20.7821 191.33 21.2003 190.304 22.0367C189.278 22.8732 188.651 24.0163 188.423 25.4661H199.753C199.525 24.0442 198.898 22.915 197.872 22.0785C196.846 21.2142 195.592 20.7821 194.109 20.7821Z" fill="#0F1424"/>
<path d="M216.849 19.151C217.647 18.0637 218.716 17.2412 220.056 16.6836C221.424 16.126 222.992 15.8472 224.759 15.8472V21.8694C224.018 21.8137 223.519 21.7858 223.262 21.7858C221.353 21.7858 219.856 22.3155 218.773 23.375C217.69 24.4066 217.148 25.9679 217.148 28.059V38.6817H210.479V16.1817H216.849V19.151Z" fill="#0F1424"/>
<path d="M251.946 7.65015V38.6817H245.575V36.0887C243.922 38.0404 241.528 39.0162 238.392 39.0162C236.226 39.0162 234.259 38.5423 232.492 37.5943C230.753 36.6464 229.385 35.2941 228.388 33.5376C227.39 31.7811 226.891 29.7458 226.891 27.4317C226.891 25.1176 227.39 23.0823 228.388 21.3258C229.385 19.5693 230.753 18.217 232.492 17.2691C234.259 16.3211 236.226 15.8472 238.392 15.8472C241.328 15.8472 243.623 16.7533 245.276 18.5655V7.65015H251.946ZM239.547 33.6631C241.229 33.6631 242.625 33.1055 243.737 31.9902C244.848 30.8471 245.404 29.3276 245.404 27.4317C245.404 25.5358 244.848 24.0302 243.737 22.915C242.625 21.7719 241.229 21.2003 239.547 21.2003C237.837 21.2003 236.426 21.7719 235.314 22.915C234.202 24.0302 233.647 25.5358 233.647 27.4317C233.647 29.3276 234.202 30.8471 235.314 31.9902C236.426 33.1055 237.837 33.6631 239.547 33.6631Z" fill="#0F1424"/>
<path d="M267.397 15.8472C270.96 15.8472 273.696 16.6836 275.606 18.3564C277.516 20.0014 278.47 22.4968 278.47 25.8425V38.6817H272.228V35.8796C270.974 37.9707 268.637 39.0162 265.216 39.0162C263.449 39.0162 261.91 38.7235 260.599 38.138C259.316 37.5525 258.333 36.7439 257.649 35.7123C256.965 34.6807 256.623 33.5097 256.623 32.1993C256.623 30.1083 257.421 28.4633 259.017 27.2644C260.642 26.0655 263.136 25.4661 266.499 25.4661H271.801C271.801 24.0442 271.359 22.9568 270.475 22.204C269.592 21.4233 268.266 21.033 266.499 21.033C265.273 21.033 264.062 21.2282 262.865 21.6185C261.696 21.981 260.699 22.4828 259.872 23.1241L257.478 18.5655C258.732 17.7012 260.228 17.0321 261.967 16.5581C263.734 16.0841 265.544 15.8472 267.397 15.8472ZM266.884 34.625C268.024 34.625 269.036 34.3741 269.919 33.8722C270.803 33.3425 271.43 32.5757 271.801 31.572V29.2718H267.226C264.489 29.2718 263.121 30.1501 263.121 31.9066C263.121 32.743 263.449 33.4122 264.105 33.914C264.789 34.388 265.715 34.625 266.884 34.625Z" fill="#0F1424"/>
<path d="M295.703 39.0162C293.28 39.0162 291.1 38.5283 289.161 37.5525C287.252 36.5488 285.755 35.1687 284.672 33.4122C283.589 31.6557 283.047 29.6622 283.047 27.4317C283.047 25.2012 283.589 23.2077 284.672 21.4512C285.755 19.6947 287.252 18.3286 289.161 17.3527C291.1 16.349 293.28 15.8472 295.703 15.8472C298.126 15.8472 300.292 16.349 302.202 17.3527C304.111 18.3286 305.608 19.6947 306.691 21.4512C307.774 23.2077 308.316 25.2012 308.316 27.4317C308.316 29.6622 307.774 31.6557 306.691 33.4122C305.608 35.1687 304.111 36.5488 302.202 37.5525C300.292 38.5283 298.126 39.0162 295.703 39.0162ZM295.703 33.6631C297.413 33.6631 298.81 33.1055 299.893 31.9902C301.004 30.8471 301.56 29.3276 301.56 27.4317C301.56 25.5358 301.004 24.0302 299.893 22.915C298.81 21.7719 297.413 21.2003 295.703 21.2003C293.993 21.2003 292.582 21.7719 291.47 22.915C290.358 24.0302 289.803 25.5358 289.803 27.4317C289.803 29.3276 290.358 30.8471 291.47 31.9902C292.582 33.1055 293.993 33.6631 295.703 33.6631Z" fill="#0F1424"/>
<ellipse cx="28.8326" cy="29" rx="28.8326" ry="29" fill="#0D1626"/>
<path fill-rule="evenodd" clip-rule="evenodd" d="M42.0037 24.8451C42.0037 32.4477 35.8762 38.6107 28.3176 38.6107C20.7589 38.6107 14.6315 32.4477 14.6315 24.8451C14.6315 17.2426 20.7589 11.0796 28.3176 11.0796C28.4151 11.0796 28.5124 11.0806 28.6094 11.0827C28.6574 11.0806 28.7057 11.0796 28.7542 11.0796H42.7548C42.7548 13.5372 41.4345 15.6864 39.4646 16.8567C41.0632 19.1092 42.0037 21.8667 42.0037 24.8451ZM22.7477 24.8451C22.7477 27.9392 25.2414 30.4474 28.3176 30.4474C31.3937 30.4474 33.8874 27.9392 33.8874 24.8451C33.8874 21.7511 31.3937 19.2429 28.3176 19.2429C25.2414 19.2429 22.7477 21.7511 22.7477 24.8451ZM39.6665 36.26C42.9137 39.5261 42.9358 44.9718 38.7833 46.9636C35.532 48.523 31.9466 49.3546 28.2759 49.3546C21.802 49.3546 15.5933 46.768 11.0156 42.1637C14.2518 38.9087 19.5662 39.193 23.9887 40.4213C25.3732 40.8058 26.8143 41.0056 28.2759 41.0056C32.5482 41.0056 36.6455 39.2986 39.6665 36.26Z" fill="url(#paint0_linear)"/>
<defs>
<linearGradient id="paint0_linear" x1="13.2698" y1="11.0796" x2="45.4218" y2="14.5421" gradientUnits="userSpaceOnUse">
<stop stop-color="#04EAF6"/>
<stop offset="1" stop-color="#E527A0"/>
</linearGradient>
</defs>
</svg>
