<svg width="48" height="48" viewBox="0 0 48 48" fill="none" xmlns="http://www.w3.org/2000/svg">
<g clip-path="url(#clip0_2787_5)">
<path d="M33 0H15C6.71573 0 0 6.71573 0 15V33C0 41.2843 6.71573 48 15 48H33C41.2843 48 48 41.2843 48 33V15C48 6.71573 41.2843 0 33 0Z" fill="#1739A4"/>
<path fill-rule="evenodd" clip-rule="evenodd" d="M29.6116 16.6409L27.0332 11.9453L23.8167 13.4973L26.4089 18.218L29.6116 16.6409ZM25.2452 18.7042L19.9987 21.5019C19.9987 21.5019 18.673 22.2255 18.2346 22.7107C16.8431 24.2508 16.7326 26.1751 17.7116 28.1061C18.6835 30.0229 20.3155 31.1308 22.3512 30.9242C23.0126 30.857 24.3752 30.1337 24.3752 30.1337L29.6217 27.336L31.9663 31.9602L26.7198 34.7579C26.7198 34.7579 24.2686 35.9451 22.9468 36.0133C18.5936 36.2381 14.9737 34.0506 13.1796 30.5119C11.3509 26.9054 11.6538 22.927 14.4916 19.3727C15.2837 18.3807 17.756 16.799 17.756 16.799L22.913 14.1045L25.2452 18.7042ZM30.8261 26.4314L33.1994 31.145L36.0994 29.5876L33.7263 24.874L32.2763 25.6526L30.8261 26.4314Z" fill="white"/>
</g>
<defs>
<clipPath id="clip0_2787_5">
<rect width="48" height="48" fill="white"/>
</clipPath>
</defs>
</svg>
