<svg width="48" height="48" viewBox="0 0 48 48" fill="none" xmlns="http://www.w3.org/2000/svg">
<g clip-path="url(#clip0_2787_19)">
<path d="M33 0H15C6.71573 0 0 6.71573 0 15V33C0 41.2843 6.71573 48 15 48H33C41.2843 48 48 41.2843 48 33V15C48 6.71573 41.2843 0 33 0Z" fill="#1739A4"/>
<path d="M23.13 32.61H24.78V31.05C26 30.91 26.95 30.535 27.63 29.925C28.31 29.315 28.65 28.5 28.65 27.48C28.65 26.46 28.36 25.63 27.78 24.99C27.2 24.35 26.22 23.74 24.84 23.16C23.68 22.68 22.84 22.25 22.32 21.87C21.8 21.49 21.54 20.98 21.54 20.34C21.54 19.72 21.765 19.23 22.215 18.87C22.665 18.51 23.28 18.33 24.06 18.33C24.66 18.33 25.18 18.47 25.62 18.75C26.06 19.03 26.43 19.45 26.73 20.01L28.17 19.32C27.83 18.62 27.38 18.07 26.82 17.67C26.26 17.27 25.6 17.03 24.84 16.95V15.42H23.19V16.95C22.17 17.09 21.365 17.465 20.775 18.075C20.185 18.685 19.89 19.44 19.89 20.34C19.89 21.32 20.19 22.1 20.79 22.68C21.39 23.26 22.29 23.8 23.49 24.3C24.83 24.86 25.75 25.365 26.25 25.815C26.75 26.265 27 26.82 27 27.48C27 28.12 26.735 28.635 26.205 29.025C25.675 29.415 25.01 29.61 24.21 29.61C23.43 29.61 22.735 29.39 22.125 28.95C21.515 28.51 21.09 27.91 20.85 27.15L19.32 27.66C19.74 28.58 20.255 29.305 20.865 29.835C21.475 30.365 22.23 30.75 23.13 30.99V32.61ZM24 36C22.36 36 20.81 35.685 19.35 35.055C17.89 34.425 16.615 33.565 15.525 32.475C14.435 31.385 13.575 30.11 12.945 28.65C12.315 27.19 12 25.64 12 24C12 22.34 12.315 20.78 12.945 19.32C13.575 17.86 14.435 16.59 15.525 15.51C16.615 14.43 17.89 13.575 19.35 12.945C20.81 12.315 22.36 12 24 12C25.66 12 27.22 12.315 28.68 12.945C30.14 13.575 31.41 14.43 32.49 15.51C33.57 16.59 34.425 17.86 35.055 19.32C35.685 20.78 36 22.34 36 24C36 25.64 35.685 27.19 35.055 28.65C34.425 30.11 33.57 31.385 32.49 32.475C31.41 33.565 30.14 34.425 28.68 35.055C27.22 35.685 25.66 36 24 36ZM24 34.2C26.84 34.2 29.25 33.205 31.23 31.215C33.21 29.225 34.2 26.82 34.2 24C34.2 21.16 33.21 18.75 31.23 16.77C29.25 14.79 26.84 13.8 24 13.8C21.18 13.8 18.775 14.79 16.785 16.77C14.795 18.75 13.8 21.16 13.8 24C13.8 26.82 14.795 29.225 16.785 31.215C18.775 33.205 21.18 34.2 24 34.2Z" fill="white"/>
</g>
<defs>
<clipPath id="clip0_2787_19">
<rect width="48" height="48" fill="white"/>
</clipPath>
</defs>
</svg>
