<svg width="48" height="48" viewBox="0 0 48 48" fill="none" xmlns="http://www.w3.org/2000/svg">
<g clip-path="url(#clip0_2787_8)">
<path d="M33 0H15C6.71573 0 0 6.71573 0 15V33C0 41.2843 6.71573 48 15 48H33C41.2843 48 48 41.2843 48 33V15C48 6.71573 41.2843 0 33 0Z" fill="#1739A4"/>
<path fill-rule="evenodd" clip-rule="evenodd" d="M14 17C14 14.4932 18.4797 13 24 13L24.3235 13.0017C29.6942 13.0589 34 14.5424 34 17V24V31C34 33.5118 29.5423 35 24 35C18.5663 35 14.1752 33.5696 14.0051 31.1466L14 31V24V17ZM16 19.5277V24C16 24.8128 19.5562 26 24 26C28.4438 26 32 24.8128 32 24V19.5277C30.1751 20.476 27.2701 21 24 21C20.7299 21 17.8249 20.476 16 19.5277ZM32 26.5333C30.1788 27.479 27.2793 28 24 28C20.7207 28 17.8212 27.479 16 26.5333V31C16 31.8128 19.5562 33 24 33C28.3405 33 31.8341 31.8674 31.9943 31.0573L32 31V26.5333ZM32 17C32 16.193 28.4209 15 24 15L23.693 15.0019C19.4146 15.0553 16 16.2118 16 17C16 17.807 19.5791 19 24 19C28.4209 19 32 17.807 32 17Z" fill="white"/>
</g>
<defs>
<clipPath id="clip0_2787_8">
<rect width="48" height="48" fill="white"/>
</clipPath>
</defs>
</svg>
